<svg width="111" height="21" viewBox="0 0 111 21" fill="none" xmlns="http://www.w3.org/2000/svg">
<g clip-path="url(#clip0_5003_637)">
<path fill-rule="evenodd" clip-rule="evenodd" d="M108.531 16.2909V15.987H108.726C108.832 15.987 108.977 15.9951 108.977 16.1251C108.977 16.2659 108.903 16.2909 108.777 16.2909H108.531ZM108.531 16.5041H108.661L108.964 17.0347H109.295L108.961 16.4824C109.134 16.4696 109.276 16.3877 109.276 16.1549C109.276 15.8659 109.076 15.7725 108.739 15.7725H108.251V17.0347H108.531V16.5041ZM109.951 16.4053C109.951 15.6642 109.375 15.2344 108.733 15.2344C108.087 15.2344 107.511 15.6642 107.511 16.4053C107.511 17.1464 108.087 17.5782 108.733 17.5782C109.375 17.5782 109.951 17.1464 109.951 16.4053ZM109.599 16.4053C109.599 16.9454 109.202 17.3082 108.733 17.3082V17.3041C108.25 17.3082 107.86 16.9454 107.86 16.4053C107.86 15.8659 108.251 15.5044 108.733 15.5044C109.203 15.5044 109.599 15.8659 109.599 16.4053Z" fill="black" style="fill:black;fill-opacity:1;"/>
<path fill-rule="evenodd" clip-rule="evenodd" d="M65.2289 3.86184L65.2302 17.1683H68.988V3.86184H65.2289ZM35.667 3.84424V17.1683H39.4593V6.82568L42.417 6.83515C43.3896 6.83515 44.0617 7.06866 44.5307 7.56884C45.1257 8.20235 45.368 9.22301 45.368 11.0917V17.1683H49.0411V9.80643C49.0411 4.55221 45.6922 3.84357 42.4157 3.84357H35.6677L35.667 3.84424ZM71.2797 3.86252V17.1683H77.3752C80.6227 17.1683 81.6826 16.6282 82.8285 15.4173C83.6393 14.5673 84.1625 12.7006 84.1625 10.6613C84.1625 8.79119 83.7192 7.1228 82.9462 6.08387C81.554 4.22598 79.5485 3.86252 76.5536 3.86252H71.2797ZM75.0077 6.75935H76.6233C78.9672 6.75935 80.4832 7.81249 80.4832 10.5435C80.4832 13.2759 78.9672 14.3283 76.6233 14.3283H75.0077V6.75935ZM59.8109 3.86252L56.6744 14.4075L53.6693 3.8632L49.6131 3.86252L53.9042 17.1683H59.3208L63.6464 3.86252H59.8109ZM85.9114 17.1683H89.6699V3.8632L85.9101 3.86252L85.9114 17.1683ZM96.4456 3.86726L91.1981 17.1636H94.9038L95.7342 14.8136H101.944L102.73 17.1636H106.753L101.466 3.86658L96.4456 3.86726ZM98.8849 6.29369L101.162 12.5232H96.537L98.8849 6.29369Z" fill="white" style="fill:white;fill-opacity:1;"/>
<path fill-rule="evenodd" clip-rule="evenodd" d="M11.431 6.08069V4.24987C11.6083 4.23633 11.7883 4.22753 11.9711 4.22144C16.9796 4.06441 20.2656 8.5254 20.2656 8.5254C20.2656 8.5254 16.7163 13.4541 12.9112 13.4541C12.4083 13.4561 11.9081 13.3762 11.431 13.2172V7.66447C13.3802 7.90001 13.7728 8.76093 14.9451 10.7156L17.5522 8.51727C17.5522 8.51727 15.649 6.02113 12.4408 6.02113C12.0922 6.02113 11.7586 6.04549 11.431 6.08069ZM11.431 0.031189V2.76761C11.6103 2.7534 11.7904 2.74189 11.9711 2.73512C18.9357 2.50094 23.4738 8.44756 23.4738 8.44756C23.4738 8.44756 18.2622 14.7854 12.832 14.7854C12.3345 14.7854 11.8682 14.7394 11.431 14.6615V16.3523C11.8053 16.3996 12.1931 16.4281 12.5978 16.4281C17.6504 16.4281 21.3046 13.848 24.843 10.7935C25.4298 11.2632 27.8319 12.4063 28.3253 12.9072C24.9608 15.7228 17.1204 17.9936 12.675 17.9936C12.2594 17.9922 11.8445 17.9706 11.431 17.9286V20.3043H30.636V0.031189H11.431ZM11.431 13.2172V14.6615C6.75746 13.829 5.45998 8.97007 5.45998 8.97007C5.45998 8.97007 7.70435 6.4834 11.431 6.08069V7.66447L11.4235 7.66379C9.46749 7.42893 7.93988 9.25637 7.93988 9.25637C7.93988 9.25637 8.79607 12.3319 11.431 13.2172ZM3.13034 8.75958C3.13034 8.75958 5.89992 4.67153 11.431 4.24987V2.76626C5.30499 3.25831 0 8.44621 0 8.44621C0 8.44621 3.00445 17.132 11.431 17.9272V16.3523C5.24746 15.5746 3.13034 8.75958 3.13034 8.75958Z" fill="#76B900" style="fill:#76B900;fill:color(display-p3 0.4627 0.7255 0.0000);fill-opacity:1;"/>
</g>
<defs>
<clipPath id="clip0_5003_637">
<rect width="111" height="20.3049" fill="white" style="fill:white;fill-opacity:1;"/>
</clipPath>
</defs>
</svg>
