<svg width="79" height="127" viewBox="0 0 79 127" fill="none" xmlns="http://www.w3.org/2000/svg">
<g clip-path="url(#clip0_5235_618)">
<path fill-rule="evenodd" clip-rule="evenodd" d="M0.0332031 127H78.8541V-30.707H0.0332031V127Z" fill="#005394" style="fill:#005394;fill:color(display-p3 0.0000 0.3255 0.5804);fill-opacity:1;"/>
<path fill-rule="evenodd" clip-rule="evenodd" d="M34.7316 55.1C35.4549 55.1796 36.2688 54.833 36.2972 54.1543C36.3573 52.6972 34.7216 51.6129 33.3536 51.0761C31.8737 50.4969 29.2662 49.723 25.3573 49.7091C21.4624 49.6952 16.2696 50.6727 14.2089 52.5926C12.9159 53.7965 13.1819 54.6878 13.5101 55.3882C13.8523 56.1165 14.3435 56.7552 14.8626 57.2603C15.0562 58.1816 16.3196 61.2442 17.8646 62.3146C18.6384 64.4398 21.3294 67.7851 24.7326 68.3504C26.3231 69.9398 29.7563 71.5604 31.6145 71.3368C33.042 72.2286 35.777 73.3591 38.0213 73.0458C38.9426 73.9671 41.203 74.7549 42.7779 74.4723C43.8773 75.4837 46.3307 76.5697 47.8896 76.375C48.7369 77.2818 50.7147 78.5163 52.0838 78.7238C52.5589 79.7798 52.9895 80.4646 53.9848 81.1328C54.1795 82.1731 54.9517 83.347 55.2638 83.8076C55.3835 85.2196 54.9072 87.1084 53.4196 87.465C53.7773 85.6664 52.3959 84.6672 51.3711 84.5965C50.0782 84.5064 48.6501 85.3687 48.7831 87.2419C48.9188 89.1507 51.1024 90.7068 53.4491 90.5861C56.0516 90.4525 57.6133 88.862 57.9554 87.391C58.8022 86.3206 59.1187 83.6296 58.4656 82.9459C58.8055 81.5489 58.3254 80.0029 57.5532 79.4081C57.3446 77.743 56.4995 76.1241 55.2043 75.5427C54.7442 73.9977 53.0034 72.6308 51.7873 72.3627C51.1024 70.9501 48.9622 69.4636 47.6832 69.3885C46.4342 68.2001 44.5477 67.1297 43.223 67.1008C42.1532 65.8368 40.5715 64.8638 39.4338 64.7225C38.3495 63.4446 37.219 62.4626 36.1497 61.928C35.7625 60.5305 34.9302 59.1324 34.1859 58.5388C33.8599 57.1324 34.1369 56.2194 34.7316 55.1Z" fill="white" style="fill:white;fill-opacity:1;"/>
<path fill-rule="evenodd" clip-rule="evenodd" d="M25.3602 50.7603C21.8108 50.7937 17.1609 51.4846 15.3378 52.9178C14.3564 53.6894 14.2607 54.1339 14.2607 54.4805C14.2607 54.5239 14.2619 54.5651 14.263 54.6062C14.2708 54.816 14.3197 54.8878 14.3447 54.915C14.4165 54.717 14.6485 54.4978 14.9946 54.3921L15.6149 54.2035L15.4496 54.8399C15.2811 55.1448 15.1648 55.6232 15.3434 56.0511C15.5225 56.4794 15.9648 56.7954 16.6574 56.9935C18.4494 57.502 20.4951 57.1682 22.6603 56.8171C22.6603 56.8171 25.1271 56.3487 27.0526 56.3448C28.9776 56.3404 30.8897 56.5251 32.9954 57.5799C32.9899 57.5053 32.9737 57.4258 32.9737 57.3529C32.9737 56.3448 33.4116 55.5353 33.6669 55.0624L33.8027 54.7976L33.855 54.5128L33.5223 53.1776L34.1098 53.4207L34.9198 54.0577C34.9599 54.0416 35.0455 54.0466 35.0795 54.0304C35.1095 54.0143 35.1401 53.9553 35.1596 53.8708C35.2052 53.6716 34.8313 52.7614 33.1212 52.1055C30.9559 51.2738 28.8068 50.7263 25.3602 50.7603Z" fill="#005394" style="fill:#005394;fill:color(display-p3 0.0000 0.3255 0.5804);fill-opacity:1;"/>
<path fill-rule="evenodd" clip-rule="evenodd" d="M24.9131 57.5615L21.5355 58.1534C19.6295 58.5501 18.0912 58.7916 16.583 58.3526C17.6757 61.6673 19.3091 62.7343 25.3604 61.8965L26.9526 61.6717C30.5054 61.1677 32.8921 60.8728 34.4993 61.2011C32.9855 57.0163 26.8385 57.3334 24.9131 57.5615Z" fill="#005394" style="fill:#005394;fill:color(display-p3 0.0000 0.3255 0.5804);fill-opacity:1;"/>
<path fill-rule="evenodd" clip-rule="evenodd" d="M29.2974 62.4562L28.637 62.5358L25.7218 62.9302C23.3674 63.2741 21.1999 63.5556 19.8135 63.3447C21.6917 67.0683 24.9284 68.2366 29.743 66.8196L31.881 66.1075C33.7203 65.4694 35.7698 64.7968 37.6391 64.567C35.6101 61.723 31.8421 62.1413 29.2974 62.4562Z" fill="#005394" style="fill:#005394;fill:color(display-p3 0.0000 0.3255 0.5804);fill-opacity:1;"/>
<path fill-rule="evenodd" clip-rule="evenodd" d="M34.6155 66.3958L34.196 66.5294L32.5531 67.0774C30.755 67.6899 28.6159 68.3987 27.0576 68.5895C30.5703 71.3601 33.4221 70.2379 35.9334 69.1286L36.3028 68.9656C38.0214 68.2073 39.7783 67.4707 41.4084 67.0796C39.4228 64.9605 37.0889 65.6103 34.6155 66.3958Z" fill="#005394" style="fill:#005394;fill:color(display-p3 0.0000 0.3255 0.5804);fill-opacity:1;"/>
<path fill-rule="evenodd" clip-rule="evenodd" d="M40.7174 71.6486C42.723 70.8475 44.5823 69.9451 46.2469 69.4694C43.5325 66.774 40.6702 68.0569 39.5085 68.4981C37.785 69.1523 34.6333 70.6389 32.9287 71.0939C36.1393 73.1363 38.7358 72.442 40.7174 71.6486Z" fill="#005795" style="fill:#005795;fill:color(display-p3 0.0000 0.3412 0.5843);fill-opacity:1;"/>
<path fill-rule="evenodd" clip-rule="evenodd" d="M44.9517 70.766L42.2112 71.9199C42.2112 71.9199 40.6122 72.5502 39.8623 72.8434C42.3731 74.2609 44.6279 73.5399 45.6221 73.1855C46.9172 72.7249 48.6174 72.2414 49.9409 72.0306C48.0032 69.7423 46.0349 70.361 44.9517 70.766Z" fill="#005394" style="fill:#005394;fill:color(display-p3 0.0000 0.3255 0.5804);fill-opacity:1;"/>
<path fill-rule="evenodd" clip-rule="evenodd" d="M48.5958 73.3298L46.9563 73.8055C46.9563 73.8055 45.4214 74.2138 44.6553 74.418C46.312 75.6147 48.1619 75.6787 49.4865 75.4144L50.079 75.2865C50.9697 75.0867 52.2359 74.8202 53.2958 74.7869C52.1358 72.9593 50.1558 72.9092 48.5958 73.3298Z" fill="#005394" style="fill:#005394;fill:color(display-p3 0.0000 0.3255 0.5804);fill-opacity:1;"/>
<path fill-rule="evenodd" clip-rule="evenodd" d="M49.8175 76.3651C49.8175 76.3651 49.7196 76.3891 49.665 76.4035C50.3365 77.1846 51.5939 77.8016 52.7438 78.0514L54.1614 78.22C54.1614 78.22 55.5322 78.4253 56.1625 78.5198C55.9288 77.3009 55.0487 76.3407 53.5689 75.993C52.3994 75.7165 51.0887 76.048 49.8175 76.3651Z" fill="#005394" style="fill:#005394;fill:color(display-p3 0.0000 0.3255 0.5804);fill-opacity:1;"/>
<path fill-rule="evenodd" clip-rule="evenodd" d="M55.3077 81.0239L56.4237 81.4501C56.4237 81.4501 56.9917 81.6926 57.3862 81.8606C57.3862 81.8339 57.3917 81.8045 57.3917 81.7761C57.3917 80.669 56.7803 79.8016 56.125 79.5886L54.1311 79.2642C54.1311 79.2642 53.8646 79.2381 53.5986 79.2119C53.9029 79.9212 54.5327 80.6545 55.3077 81.0239Z" fill="#005394" style="fill:#005394;fill:color(display-p3 0.0000 0.3255 0.5804);fill-opacity:1;"/>
<path fill-rule="evenodd" clip-rule="evenodd" d="M56.2449 83.5593L56.3272 83.6711L56.8541 84.2992C56.8541 84.2992 57.1857 84.7704 57.4683 85.1693C57.5734 84.8767 57.7042 84.5991 57.7042 84.2319C57.7042 84.0188 57.6825 83.8068 57.6302 83.6088C57.53 83.2277 57.3398 82.9634 57.0683 82.8221L55.7342 82.2875C55.7342 82.2875 55.5723 82.2268 55.4404 82.1768C55.6396 82.6702 55.9239 83.1287 56.2449 83.5593Z" fill="#005394" style="fill:#005394;fill:color(display-p3 0.0000 0.3255 0.5804);fill-opacity:1;"/>
<path fill-rule="evenodd" clip-rule="evenodd" d="M54.5561 88.0219C53.8791 88.4837 53.0996 88.6294 52.2384 88.4553L51.7444 88.3557L52.1105 88.008C52.619 87.5246 52.654 86.828 52.4615 86.3524C52.2574 85.8439 51.8234 85.5546 51.2737 85.5568C50.5271 85.5601 50.0059 85.8633 49.8067 86.4074C49.5419 87.1301 49.8968 88.0948 50.6685 88.7513C51.7767 89.6943 54.1539 89.8629 55.4674 89.0912C56.3164 88.5927 56.8043 87.9329 56.8811 87.1824C56.8866 87.114 56.8911 87.0433 56.8911 86.9738C56.8911 86.4013 56.6096 85.8261 56.2012 85.332C55.8947 86.4814 55.335 87.4901 54.5561 88.0219Z" fill="#005394" style="fill:#005394;fill:color(display-p3 0.0000 0.3255 0.5804);fill-opacity:1;"/>
<path fill-rule="evenodd" clip-rule="evenodd" d="M40.7152 71.6486C42.7203 70.8475 44.5807 69.9451 46.2441 69.4694C43.5297 66.774 40.6674 68.0569 39.5069 68.4981C37.7822 69.1523 34.6339 70.6389 32.9287 71.0939C36.1388 73.1363 38.7341 72.442 40.7152 71.6486Z" stroke="#1A1918" style="stroke:#1A1918;stroke:color(display-p3 0.1020 0.0980 0.0941);stroke-opacity:1;" stroke-width="0.214"/>
<path fill-rule="evenodd" clip-rule="evenodd" d="M11.8536 61.158C11.6294 61.2125 11.6511 61.8946 11.7534 62.6696C11.858 63.4568 11.9971 64.1906 12.1991 64.1567C12.4171 64.1188 12.4511 63.3611 12.3632 62.5761C12.2736 61.7828 12.0511 61.1102 11.8536 61.158ZM12.7793 62.3731C12.9824 63.6949 12.9724 64.9684 12.4372 65.1075C11.7306 65.291 11.4185 63.8896 11.1593 62.7736C10.7476 61.01 11.1687 60.3118 11.6872 60.2923C12.2285 60.2707 12.6052 61.2403 12.7793 62.3731Z" fill="white" style="fill:white;fill-opacity:1;"/>
<path fill-rule="evenodd" clip-rule="evenodd" d="M12.4045 56.7835C12.3227 56.7835 12.1958 57.1952 12.1925 57.7782C12.188 58.3323 12.2142 58.7941 12.3477 58.7891C12.4968 58.7857 12.6064 58.3879 12.6008 57.8088C12.5947 57.0433 12.5085 56.7835 12.4045 56.7835ZM13.1065 57.7042C13.155 58.8336 12.8317 59.9451 12.4373 59.9635C11.8286 59.9941 11.7157 58.4692 11.724 57.6297C11.7396 56.1659 11.9816 55.7715 12.4134 55.7715C12.7739 55.7715 13.0465 56.3445 13.1065 57.7042Z" fill="white" style="fill:white;fill-opacity:1;"/>
<path fill-rule="evenodd" clip-rule="evenodd" d="M11.1285 52.4655C10.7647 52.4438 10.5049 52.9484 10.4898 53.6544C10.4726 54.4867 10.6389 55.0669 10.9805 55.0736C11.3666 55.082 11.5458 54.5084 11.538 53.6989C11.5307 52.9006 11.3894 52.48 11.1285 52.4655ZM12.0887 53.6177C12.0576 54.8956 11.7394 55.8024 10.9588 55.8458C10.264 55.8859 9.88899 54.8138 9.86618 53.7056C9.8378 52.2864 10.4542 51.6705 11.0929 51.6622C11.6715 51.6555 12.1138 52.4722 12.0887 53.6177Z" fill="white" style="fill:white;fill-opacity:1;"/>
<path fill-rule="evenodd" clip-rule="evenodd" d="M9.59048 56.4569C9.30564 56.5837 9.30786 57.4944 9.69452 58.1732C10.1184 58.9164 10.4867 59.2113 10.7137 59.095C11.0626 58.9164 10.9874 58.1364 10.6097 57.3999C10.2436 56.6916 9.85864 56.3372 9.59048 56.4569ZM11.0409 57.0805C11.5827 58.0613 11.62 59.534 10.9363 59.8533C10.3054 60.1476 9.482 59.2664 9.05584 58.2026C8.75931 57.4599 8.55069 56.345 9.13707 55.9806C9.7546 55.5984 10.4867 56.0786 11.0409 57.0805Z" fill="white" style="fill:white;fill-opacity:1;"/>
<path fill-rule="evenodd" clip-rule="evenodd" d="M13.3964 49.076C13.2184 48.9647 12.7272 49.3647 12.5046 49.7525C12.1068 50.4401 12.0534 51.0627 12.2064 51.1411C12.4217 51.2541 13.0326 50.5848 13.2028 50.2426C13.5594 49.5289 13.6051 49.2062 13.3964 49.076ZM13.619 50.2794C13.3781 50.8674 12.5719 52.0852 11.8348 51.7136C11.1655 51.3748 11.5461 50.1837 11.9483 49.4777C12.3861 48.7044 13.2696 47.9533 13.7158 48.2726C14.1569 48.5881 13.9984 49.3586 13.619 50.2794Z" fill="white" style="fill:white;fill-opacity:1;"/>
<path fill-rule="evenodd" clip-rule="evenodd" d="M35.7153 56.3075C35.4806 56.4043 35.5045 56.7704 35.6864 57.3485C35.934 58.1429 36.161 58.3871 36.3546 58.3243C36.5532 58.2603 36.4981 57.6005 36.3401 57.0803C36.1882 56.5813 35.9902 56.1935 35.7153 56.3075ZM36.7156 56.9273C37.0311 57.6684 37.2686 58.9685 36.6611 59.191C36.2372 59.349 35.6374 58.6458 35.2296 57.576C34.7862 56.411 35.0166 55.6689 35.3187 55.5448C35.7515 55.3668 36.2694 55.873 36.7156 56.9273Z" fill="white" style="fill:white;fill-opacity:1;"/>
<path fill-rule="evenodd" clip-rule="evenodd" d="M37.0868 52.4217C36.8392 52.4829 36.7652 52.9981 36.9338 53.7586C37.1051 54.5341 37.3149 54.9002 37.4757 54.8807C37.6376 54.8613 37.8061 54.34 37.6103 53.461C37.4467 52.726 37.2704 52.3783 37.0868 52.4217ZM38.1527 53.2151C38.3308 54.0574 38.3057 55.5133 37.7605 55.6585C37.2609 55.7915 36.877 54.9642 36.5571 53.7163C36.2356 52.4579 36.4603 51.8353 36.9855 51.7135C37.6771 51.5561 38.0342 52.6554 38.1527 53.2151Z" fill="white" style="fill:white;fill-opacity:1;"/>
<path fill-rule="evenodd" clip-rule="evenodd" d="M14.5244 48.6254C14.5266 47.2073 15.9119 46.6115 17.5164 46.7795C17.7145 46.5614 18.0416 46.2743 18.3097 46.1547C19.3723 44.2231 21.3262 43.896 22.4511 44.5302C23.586 44.3121 24.6637 44.1925 25.6423 45.2629C26.9374 44.4162 28.2142 44.9018 28.9419 45.8526C30.3511 45.3747 31.5161 46.0212 32.0335 46.9781C32.9948 46.5263 35.2697 46.9425 34.6205 48.6527C34.5465 48.8485 34.1771 48.6799 34.1147 48.6527C34.0803 48.6376 34.0619 48.6126 34.0836 48.5765C34.33 48.1531 34.216 47.7725 33.6402 47.5333C33.0955 47.3063 32.1225 47.3892 32.0051 47.7803C32.5598 48.0474 33.0371 48.4329 33.2402 48.6905C35.4527 48.8112 36.186 50.7139 35.7698 50.9409C35.4383 51.1245 35.1189 50.9843 35.0689 50.9681C35.0366 50.9559 35.0288 50.917 35.0538 50.8942C35.4405 50.5592 35.0082 50.1086 34.542 49.792C34.0202 49.4404 33.3247 49.1089 33.1033 49.2875C33.0282 49.3481 33.1784 49.614 33.1629 49.663C33.1361 49.7609 32.9665 49.7965 32.8663 49.7475C32.7662 49.6975 32.5709 49.3208 32.5809 49.1929C32.5915 49.0632 32.6037 48.957 32.6677 48.9297C32.468 48.6198 31.3269 47.8571 30.1903 48.3645C30.0546 48.4257 30.2254 48.7122 30.1609 48.8318C30.1091 48.9275 29.7225 48.873 29.5962 48.6821C29.4526 48.4635 29.4955 47.9506 30.1709 47.7508C30.6282 47.6151 31.2485 47.5889 31.565 47.6485C31.6413 47.4226 31.402 46.5469 30.1903 46.2949C29.4204 46.133 28.9792 46.4679 28.7639 46.7005C28.7422 46.7244 28.6921 46.7294 28.6348 46.7199C28.5369 46.7038 28.4229 46.6059 28.3717 46.5675C28.3411 46.5447 28.3305 46.4818 28.3477 46.4524C28.3839 46.3917 28.4095 46.345 28.4902 46.2254C28.326 45.8014 27.8381 45.5422 27.3169 45.4749C26.538 45.3747 25.9076 45.703 25.7152 46.3561C25.7035 46.3984 25.6718 46.4273 25.6434 46.434C25.5839 46.4473 25.2957 46.4429 25.1961 46.2638C25.1688 46.2148 25.1961 45.9177 25.2957 45.7497C24.6787 45.0815 23.7696 44.7878 22.5201 45.1149C22.0517 45.2367 21.9927 45.6496 21.9855 45.6996C21.981 45.733 21.971 45.7781 21.9449 45.7886C21.8786 45.8192 21.5576 45.8037 21.4714 45.7692C21.4291 45.7519 21.4041 45.7007 21.4008 45.6496C21.3902 45.4854 21.4174 45.1605 21.6261 44.9736C20.8172 44.7066 19.6277 45.3842 19.2711 45.8754C19.922 45.8215 20.4806 46.1592 20.6185 46.2743C20.663 46.3116 20.6731 46.355 20.6881 46.3928C20.7426 46.5375 20.6514 46.6983 20.5785 46.7505C20.5434 46.7745 20.4895 46.7873 20.4622 46.77C19.6689 46.2866 18.6664 46.3578 18.125 46.9336C18.1912 46.9914 18.2207 47.0326 18.2296 47.0465C18.2558 47.0838 18.2663 47.1183 18.2558 47.1583C18.2458 47.1978 18.2035 47.417 18.1979 47.4532C18.1935 47.4832 18.1673 47.5333 18.125 47.5239C17.6772 47.4237 16.7264 47.2334 15.8719 47.6017C15.3144 47.8432 15.2527 48.2104 15.2371 48.4941C15.2287 48.656 15.1753 48.7395 15.1186 48.7612C14.9828 48.8123 14.6568 48.7072 14.5951 48.6916C14.5528 48.681 14.5244 48.6571 14.5244 48.6254Z" fill="white" style="fill:white;fill-opacity:1;"/>
<path fill-rule="evenodd" clip-rule="evenodd" d="M12.6013 53.1173C12.341 52.5448 12.7894 51.7314 13.4753 51.3248C14.2331 50.8741 15.1571 50.9175 15.3852 51.2541C15.4242 51.3109 15.4264 51.342 15.4197 51.3876C15.4014 51.5117 15.1655 51.6669 15.106 51.6897C15.0375 51.7159 15.0214 51.7214 14.983 51.638C14.8929 51.4377 14.4461 51.3203 13.9365 51.6413C13.3057 52.0419 13.0353 52.3512 13.1961 53.0394C13.2144 53.1134 13.2066 53.1807 13.1688 53.2096C13.1321 53.2402 12.6903 53.3131 12.6013 53.1173Z" fill="white" style="fill:white;fill-opacity:1;"/>
<path fill-rule="evenodd" clip-rule="evenodd" d="M15.9253 50.7773C15.8557 50.9119 15.1826 50.8774 15.0096 50.8312C14.8716 50.7978 14.7381 50.5263 14.7486 50.3177C14.7815 49.733 15.4997 49.2974 16.4132 49.239C17.1748 49.1911 17.6433 49.3842 17.8552 49.4476C17.9976 49.4899 18.3526 49.6785 18.4939 49.797C18.5495 49.8426 18.5735 49.8882 18.5735 49.9133C18.5735 49.95 18.4872 50.0351 18.4644 50.0646C18.4427 50.0935 18.4232 50.113 18.3754 50.0863C18.0639 49.9099 17.4163 49.7386 16.826 49.7853C16.12 49.8415 15.582 50.0045 15.7378 50.5174C15.7667 50.6165 15.9982 50.6359 15.9253 50.7773Z" fill="white" style="fill:white;fill-opacity:1;"/>
<path fill-rule="evenodd" clip-rule="evenodd" d="M18.5377 49.5108C18.467 49.4675 18.3379 49.3823 18.3836 49.2521C18.5466 48.7859 19.5535 48.3459 20.3652 48.2012C21.444 48.0115 22.1394 48.2452 22.496 48.4894C22.59 48.5534 22.6195 48.6635 22.6 48.7069C22.5795 48.7514 22.5155 48.9406 22.397 48.9946C22.313 49.033 22.2418 49.0825 22.1589 49.014C21.987 48.8722 21.2943 48.7175 20.7869 48.7514C20.0053 48.8043 19.4884 48.8644 19.3644 49.5248C19.3471 49.6138 19.3232 49.626 19.2603 49.6238C19.1569 49.6193 18.6378 49.5715 18.5377 49.5108Z" fill="white" style="fill:white;fill-opacity:1;"/>
<path fill-rule="evenodd" clip-rule="evenodd" d="M21.2086 47.4855C21.1669 47.5528 21.0962 47.5528 21.0517 47.5378C21.0072 47.5228 20.8281 47.4043 20.7847 47.3598C20.7391 47.3153 20.7196 47.2268 20.7469 47.1584C20.926 46.7256 21.8022 46.3656 22.5828 46.3116C23.7695 46.2299 24.5567 46.4919 24.886 46.9954C24.9339 47.0671 24.9456 47.1033 24.9239 47.1367C24.8838 47.1946 24.6891 47.4121 24.6385 47.441C24.585 47.4716 24.471 47.4822 24.4332 47.4193C24.1617 46.962 23.5408 46.8546 22.8904 46.8607C22.1327 46.8708 21.4584 47.0772 21.2086 47.4855Z" fill="white" style="fill:white;fill-opacity:1;"/>
<path fill-rule="evenodd" clip-rule="evenodd" d="M25.0521 48.7719C25.0783 48.8459 25.1334 48.9633 24.9976 49.0045C24.8324 49.0545 24.4641 48.8926 24.4079 48.8554C24.364 48.827 24.3478 48.7914 24.345 48.7369C24.2883 47.9101 24.977 47.5112 26.4396 47.6014C27.638 47.6754 28.3128 48.2907 28.2834 48.96C28.2778 49.0718 28.24 49.1035 28.1966 49.128C28.1509 49.153 28.0146 49.1858 27.9701 49.1925C27.939 49.1969 27.9028 49.1847 27.8967 49.138C27.8116 48.4949 27.2814 48.3307 26.6177 48.1666C26.0029 48.0153 24.8174 48.0982 25.0521 48.7719Z" fill="white" style="fill:white;fill-opacity:1;"/>
<path fill-rule="evenodd" clip-rule="evenodd" d="M66.4962 62.5761C66.4083 63.3611 66.4423 64.1188 66.6615 64.1567C66.8651 64.1906 67.0019 63.4568 67.1071 62.6696C67.2083 61.8946 67.23 61.2125 67.0069 61.158C66.8105 61.1102 66.5858 61.7828 66.4962 62.5761ZM67.1722 60.2923C67.6907 60.3118 68.1124 61.01 67.7012 62.7736C67.4409 63.8896 67.131 65.291 66.4228 65.1075C65.887 64.9684 65.877 63.6949 66.0801 62.3731C66.2542 61.2403 66.6325 60.2707 67.1722 60.2923Z" fill="white" style="fill:white;fill-opacity:1;"/>
<path fill-rule="evenodd" clip-rule="evenodd" d="M66.2599 57.8088C66.2521 58.3879 66.3629 58.7857 66.512 58.7891C66.6455 58.7941 66.6727 58.3323 66.6694 57.7782C66.665 57.1952 66.5392 56.7835 66.4552 56.7835C66.3523 56.7835 66.2672 57.0433 66.2599 57.8088ZM66.448 55.7715C66.8791 55.7715 67.1212 56.1659 67.1367 57.6297C67.1451 58.4692 67.031 59.9941 66.4229 59.9635C66.0285 59.9451 65.7058 58.8336 65.7526 57.7042C65.8143 56.3445 66.0858 55.7715 66.448 55.7715Z" fill="white" style="fill:white;fill-opacity:1;"/>
<path fill-rule="evenodd" clip-rule="evenodd" d="M67.3208 53.6989C67.313 54.5084 67.4921 55.082 67.8782 55.0736C68.2204 55.0669 68.3867 54.4867 68.3706 53.6544C68.3539 52.9484 68.0952 52.4438 67.7291 52.4655C67.4704 52.48 67.3274 52.9006 67.3208 53.6989ZM67.7675 51.6622C68.4073 51.6705 69.022 52.2864 68.9942 53.7056C68.9725 54.8138 68.5953 55.8859 67.9021 55.8458C67.1205 55.8024 66.8023 54.8956 66.7717 53.6177C66.7449 52.4722 67.1883 51.6555 67.7675 51.6622Z" fill="white" style="fill:white;fill-opacity:1;"/>
<path fill-rule="evenodd" clip-rule="evenodd" d="M68.2513 57.3999C67.8708 58.1364 67.799 58.9164 68.1467 59.095C68.3748 59.2113 68.7404 58.9164 69.1632 58.1732C69.5515 57.4944 69.5543 56.5837 69.2689 56.4569C69.0007 56.3372 68.6174 56.6916 68.2513 57.3999ZM69.7217 55.9806C70.3087 56.345 70.1023 57.4599 69.8046 58.2026C69.3774 59.2664 68.5556 60.1476 67.9242 59.8533C67.2405 59.534 67.2777 58.0613 67.8207 57.0805C68.3748 56.0786 69.1064 55.5984 69.7217 55.9806Z" fill="white" style="fill:white;fill-opacity:1;"/>
<path fill-rule="evenodd" clip-rule="evenodd" d="M65.6591 50.2426C65.8283 50.5848 66.4369 51.2541 66.6533 51.1411C66.8063 51.0627 66.7518 50.4401 66.3551 49.7525C66.1326 49.3647 65.6425 48.9647 65.4633 49.076C65.2569 49.2062 65.3003 49.5289 65.6591 50.2426ZM65.144 48.2726C65.5896 47.9533 66.4747 48.7044 66.9137 49.4777C67.3137 50.1837 67.6965 51.3748 67.0238 51.7136C66.2889 52.0852 65.4828 50.8674 65.2419 50.2794C64.8614 49.3586 64.7039 48.5881 65.144 48.2726Z" fill="white" style="fill:white;fill-opacity:1;"/>
<path fill-rule="evenodd" clip-rule="evenodd" d="M42.5204 57.0803C42.3618 57.6005 42.3073 58.2603 42.5048 58.3243C42.6995 58.3871 42.9254 58.1429 43.1741 57.3485C43.356 56.7704 43.3799 56.4043 43.1463 56.3075C42.8692 56.1935 42.6723 56.5813 42.5204 57.0803ZM43.5407 55.5448C43.8428 55.6689 44.0731 56.411 43.6308 57.576C43.2219 58.6458 42.6244 59.349 42.1977 59.191C41.5919 58.9685 41.8294 57.6684 42.1432 56.9273C42.5922 55.873 43.1079 55.3668 43.5407 55.5448Z" fill="white" style="fill:white;fill-opacity:1;"/>
<path fill-rule="evenodd" clip-rule="evenodd" d="M41.2507 53.461C41.0543 54.34 41.2228 54.8613 41.3836 54.8807C41.5444 54.9002 41.7553 54.5341 41.9255 53.7586C42.0935 52.9981 42.0195 52.4829 41.7725 52.4217C41.5889 52.3783 41.4137 52.726 41.2507 53.461ZM41.8749 51.7135C42.3989 51.8353 42.6248 52.4579 42.3021 53.7163C41.9833 54.9642 41.5984 55.7915 41.0988 55.6585C40.5547 55.5133 40.5285 54.0574 40.7077 53.2151C40.8273 52.6554 41.1833 51.5561 41.8749 51.7135Z" fill="white" style="fill:white;fill-opacity:1;"/>
<path fill-rule="evenodd" clip-rule="evenodd" d="M64.3362 48.6254C64.3328 47.2073 62.9487 46.6115 61.3453 46.7795C61.145 46.5614 60.819 46.2743 60.552 46.1547C59.4871 44.2231 57.5327 43.896 56.4084 44.5302C55.2745 44.3121 54.1958 44.1925 53.2178 45.2629C51.9209 44.4162 50.6464 44.9018 49.9187 45.8526C48.5078 45.3747 47.3439 46.0212 46.8254 46.9781C45.8658 46.5263 43.5914 46.9425 44.2396 48.6527C44.3141 48.8485 44.6835 48.6799 44.7447 48.6527C44.7792 48.6376 44.7976 48.6126 44.777 48.5765C44.5294 48.1531 44.6457 47.7725 45.2215 47.5333C45.7651 47.3063 46.7387 47.3892 46.8549 47.7803C46.3008 48.0474 45.8246 48.4329 45.6193 48.6905C43.4067 48.8112 42.6735 50.7139 43.0896 50.9409C43.4212 51.1245 43.7394 50.9843 43.7906 50.9681C43.8251 50.9559 43.8307 50.917 43.8045 50.8942C43.419 50.5592 43.8524 50.1086 44.3197 49.792C44.8393 49.4404 45.537 49.1089 45.755 49.2875C45.8313 49.3481 45.6833 49.614 45.6955 49.663C45.7244 49.7609 45.8952 49.7965 45.9932 49.7475C46.0944 49.6975 46.2897 49.3208 46.2791 49.1929C46.268 49.0632 46.2569 48.957 46.1918 48.9297C46.3932 48.6198 47.5331 47.8571 48.6686 48.3645C48.8049 48.4257 48.6341 48.7122 48.6981 48.8318C48.7526 48.9275 49.1381 48.873 49.2633 48.6821C49.408 48.4635 49.364 47.9506 48.6886 47.7508C48.2307 47.6151 47.6115 47.5889 47.2972 47.6485C47.221 47.4226 47.4597 46.5469 48.6686 46.2949C49.4402 46.133 49.8825 46.4679 50.0956 46.7005C50.1173 46.7244 50.1685 46.7294 50.2258 46.7199C50.3237 46.7038 50.4366 46.6059 50.4867 46.5675C50.5195 46.5447 50.5301 46.4818 50.5128 46.4524C50.4761 46.3917 50.4511 46.345 50.3715 46.2254C50.5345 45.8014 51.0236 45.5422 51.5426 45.4749C52.3232 45.3747 52.9529 45.703 53.1449 46.3561C53.156 46.3984 53.1883 46.4273 53.2178 46.434C53.2778 46.4473 53.5655 46.4429 53.6634 46.2638C53.6918 46.2148 53.6634 45.9177 53.5655 45.7497C54.1808 45.0815 55.0898 44.7878 56.3399 45.1149C56.8089 45.2367 56.869 45.6496 56.8751 45.6996C56.8796 45.733 56.8907 45.7781 56.9135 45.7886C56.9808 45.8192 57.3035 45.8037 57.3903 45.7692C57.4315 45.7519 57.4554 45.7007 57.4587 45.6496C57.4699 45.4854 57.4426 45.1605 57.234 44.9736C58.0423 44.7066 59.2329 45.3842 59.5901 45.8754C58.938 45.8215 58.3789 46.1592 58.2415 46.2743C58.1975 46.3116 58.187 46.355 58.1725 46.3928C58.1185 46.5375 58.2087 46.6983 58.2816 46.7505C58.3166 46.7745 58.3711 46.7873 58.3962 46.77C59.1895 46.2866 60.1942 46.3578 60.7344 46.9336C60.6671 46.9914 60.6399 47.0326 60.631 47.0465C60.6059 47.0838 60.5954 47.1183 60.6059 47.1583C60.6148 47.1978 60.656 47.417 60.6616 47.4532C60.6671 47.4832 60.6933 47.5333 60.7344 47.5239C61.1823 47.4237 62.1342 47.2334 62.9893 47.6017C63.5467 47.8432 63.6085 48.2104 63.6224 48.4941C63.6324 48.656 63.6847 48.7395 63.7415 48.7612C63.8761 48.8123 64.2032 48.7072 64.2655 48.6916C64.3067 48.681 64.3362 48.6571 64.3362 48.6254Z" fill="white" style="fill:white;fill-opacity:1;"/>
<path fill-rule="evenodd" clip-rule="evenodd" d="M66.2593 53.1173C66.5197 52.5448 66.0712 51.7314 65.3864 51.3248C64.627 50.8741 63.704 50.9175 63.4748 51.2541C63.4364 51.3109 63.4342 51.342 63.4398 51.3876C63.4592 51.5117 63.6951 51.6669 63.7524 51.6897C63.822 51.7159 63.8392 51.7214 63.8759 51.638C63.9666 51.4377 64.4139 51.3203 64.9224 51.6413C65.555 52.0419 65.8242 52.3512 65.6646 53.0394C65.6473 53.1134 65.654 53.1807 65.6907 53.2096C65.7285 53.2402 66.1692 53.3131 66.2593 53.1173Z" fill="white" style="fill:white;fill-opacity:1;"/>
<path fill-rule="evenodd" clip-rule="evenodd" d="M62.9353 50.7773C63.0037 50.9119 63.6774 50.8774 63.851 50.8312C63.989 50.7978 64.1225 50.5263 64.1114 50.3177C64.0791 49.733 63.3614 49.2974 62.4463 49.239C61.6857 49.1911 61.2162 49.3842 61.0042 49.4476C60.8629 49.4899 60.5069 49.6785 60.3656 49.797C60.3088 49.8426 60.2871 49.8882 60.2871 49.9133C60.2871 49.95 60.3733 50.0351 60.3962 50.0646C60.4178 50.0935 60.4362 50.113 60.4829 50.0863C60.7967 49.9099 61.4432 49.7386 62.0335 49.7853C62.7394 49.8415 63.2797 50.0045 63.1233 50.5174C63.0927 50.6165 62.8624 50.6359 62.9353 50.7773Z" fill="white" style="fill:white;fill-opacity:1;"/>
<path fill-rule="evenodd" clip-rule="evenodd" d="M60.3244 49.5108C60.3929 49.4675 60.5231 49.3823 60.4763 49.2521C60.3133 48.7859 59.308 48.3459 58.4946 48.2012C57.4159 48.0115 56.7205 48.2452 56.365 48.4894C56.2715 48.5534 56.2404 48.6635 56.2609 48.7069C56.2804 48.7514 56.3433 48.9406 56.4629 48.9946C56.5469 49.033 56.6192 49.0825 56.7021 49.014C56.8729 48.8722 57.5661 48.7175 58.0757 48.7514C58.8529 48.8043 59.3714 48.8644 59.4961 49.5248C59.5127 49.6138 59.5378 49.626 59.5995 49.6238C59.7047 49.6193 60.2221 49.5715 60.3244 49.5108Z" fill="white" style="fill:white;fill-opacity:1;"/>
<path fill-rule="evenodd" clip-rule="evenodd" d="M57.6522 47.4855C57.6945 47.5528 57.7629 47.5528 57.8086 47.5378C57.8531 47.5228 58.0316 47.4043 58.0761 47.3598C58.1218 47.3153 58.1412 47.2268 58.114 47.1584C57.9348 46.7256 57.0569 46.3656 56.2775 46.3116C55.0897 46.2299 54.302 46.4919 53.9743 46.9954C53.9253 47.0671 53.9131 47.1033 53.9359 47.1367C53.9743 47.1946 54.1695 47.4121 54.2229 47.441C54.2752 47.4716 54.3871 47.4822 54.4271 47.4193C54.6986 46.962 55.3184 46.8546 55.9699 46.8607C56.7276 46.8708 57.4024 47.0772 57.6522 47.4855Z" fill="white" style="fill:white;fill-opacity:1;"/>
<path fill-rule="evenodd" clip-rule="evenodd" d="M53.8083 48.7719C53.7833 48.8459 53.7265 48.9633 53.8623 49.0045C54.0275 49.0545 54.3947 48.8926 54.4526 48.8554C54.496 48.827 54.5121 48.7914 54.5165 48.7369C54.5722 47.9101 53.8823 47.5112 52.4214 47.6014C51.2225 47.6754 50.5465 48.2907 50.5782 48.96C50.5816 49.0718 50.6194 49.1035 50.665 49.128C50.7084 49.153 50.8458 49.1858 50.8892 49.1925C50.9215 49.1969 50.9588 49.1847 50.9638 49.138C51.0489 48.4949 51.578 48.3307 52.2417 48.1666C52.8559 48.0153 54.0442 48.0982 53.8083 48.7719Z" fill="white" style="fill:white;fill-opacity:1;"/>
<path fill-rule="evenodd" clip-rule="evenodd" d="M39.4245 79.1314C46.6836 79.1659 51.1176 68.551 62.0201 71.039C64.3551 71.5725 66.9421 73.1491 65.7743 75.7684C65.5785 76.2051 65.5829 76.2012 65.3765 76.7058C66.5131 77.0474 67.8116 77.8697 68.245 78.4878C67.267 78.5662 65.7927 79.3073 65.5317 79.6166C65.7382 79.8297 66.9738 81.4692 66.9421 82.623C66.6216 82.5168 65.5646 81.8814 64.1921 82.03C62.1314 82.2547 60.7439 82.2653 60.0157 81.6606C59.3853 81.1359 59.1455 80.5946 59.471 79.7373C60.0524 78.2046 60.197 77.7695 60.4741 76.1239C59.3898 75.9447 57.7692 75.9748 56.3728 76.5094C52.4561 78.0088 46.3303 84.4367 39.4245 84.445C32.1715 84.445 26.3066 78.3325 22.3527 76.9328C21.3496 76.5779 19.783 76.2229 18.4194 76.2652C18.6964 77.912 18.7966 78.2046 19.3779 79.7373C19.704 80.5946 19.4636 81.1359 18.8316 81.6606C18.1045 82.2653 16.7181 82.2547 14.6569 82.03C13.2838 81.8814 12.2257 82.5168 11.9058 82.623C11.8746 81.4692 13.1108 79.8297 13.3155 79.6166C13.0568 79.3073 11.5842 78.5662 10.6045 78.4878C11.0368 77.8697 12.3353 77.0474 13.4719 76.7058C13.2666 76.2012 13.2699 76.2051 13.0741 75.7684C11.9058 73.1491 14.5233 71.6854 16.8644 71.1903C25.2751 69.4144 32.1659 79.1659 39.4245 79.1314Z" fill="white" style="fill:white;fill-opacity:1;"/>
<path fill-rule="evenodd" clip-rule="evenodd" d="M48.2309 75.928C45.4564 77.9525 42.8355 79.8647 39.4241 79.8647C35.7912 79.8647 32.4393 77.8034 29.1969 75.8106C25.3738 73.4607 21.4199 71.0306 16.9742 71.9441C15.8125 72.1827 14.3772 72.7903 13.8353 73.78C13.6973 74.032 13.6289 74.2952 13.6289 74.5678C13.6289 74.7842 13.6723 75.0067 13.7591 75.2337C13.7591 75.2337 14.3199 76.555 14.5947 77.2048C14.9836 76.7058 15.6618 76.0521 16.6176 75.7589C18.3706 75.222 21.1951 75.7216 22.641 76.2457C24.1231 76.7842 25.7476 77.824 27.4684 78.9239C30.8932 81.1153 34.7764 83.5988 39.4252 83.616C43.7168 83.5932 47.5249 81.023 50.8835 78.7542C52.7244 77.5119 54.4602 76.3403 56.0269 75.7856C58.1437 75.0373 59.9991 75.0295 62.2339 75.76C63.1981 76.0749 63.869 76.7191 64.2523 77.2048C64.4687 76.6974 65.0879 75.2337 65.0879 75.2337C65.1758 75.0023 65.2215 74.7719 65.2215 74.5461C65.2215 74.2507 65.1458 73.963 64.9956 73.6849C64.526 72.8209 63.3227 72.0709 61.9268 71.7722C55.7454 70.447 51.9255 73.2337 48.2309 75.928Z" fill="#005394" style="fill:#005394;fill:color(display-p3 0.0000 0.3255 0.5804);fill-opacity:1;"/>
<path fill-rule="evenodd" clip-rule="evenodd" d="M60.7471 78.8494C61.171 78.8572 61.8119 78.87 61.8119 78.87C62.5997 78.9729 63.4909 79.0903 63.704 78.6713C63.7546 78.5723 63.8086 78.4711 63.8086 78.3465C63.8086 78.243 63.773 78.1245 63.6701 77.9787C63.1605 77.2532 62.139 76.7219 61.2233 76.624C61.1449 76.9879 60.8322 78.4505 60.7471 78.8494Z" fill="#005394" style="fill:#005394;fill:color(display-p3 0.0000 0.3255 0.5804);fill-opacity:1;"/>
<path fill-rule="evenodd" clip-rule="evenodd" d="M44.1278 55.1C43.4034 55.1796 42.5906 54.833 42.5622 54.1543C42.5022 52.6972 44.1389 51.6129 45.5058 51.0761C46.9857 50.4969 49.5932 49.723 53.5021 49.7091C57.3975 49.6952 62.5899 50.6727 64.6516 52.5926C65.9446 53.7965 65.6764 54.6878 65.3504 55.3882C65.0071 56.1165 64.5181 56.7552 63.9963 57.2603C63.8043 58.1816 62.5409 61.2442 60.9937 62.3146C60.2221 64.4398 57.5322 67.7851 54.1268 68.3504C52.5379 69.9398 49.1042 71.5604 47.2444 71.3368C45.8174 72.2286 43.083 73.3591 40.8381 73.0458C39.9169 73.9671 37.6576 74.7549 36.0815 74.4723C34.9821 75.4837 32.5298 76.5697 30.9687 76.375C30.1208 77.2818 28.1436 78.5163 26.7767 78.7238C26.301 79.7798 25.8699 80.4646 24.8735 81.1328C24.681 82.1731 23.9088 83.347 23.5956 83.8076C23.4771 85.2196 23.9522 87.1084 25.4382 87.465C25.0821 85.6664 26.4652 84.6672 27.4905 84.5965C28.7834 84.5064 30.2099 85.3687 30.0763 87.2419C29.9406 89.1507 27.757 90.7068 25.4098 90.5861C22.8078 90.4525 21.2478 88.862 20.9057 87.391C20.0589 86.3206 19.7407 83.6296 20.3961 82.9459C20.0534 81.5489 20.534 80.0029 21.3062 79.4081C21.5149 77.743 22.3622 76.1241 23.6556 75.5427C24.1163 73.9977 25.8554 72.6308 27.0732 72.3627C27.7581 70.9501 29.8983 69.4636 31.1773 69.3885C32.4246 68.2001 34.314 67.1297 35.6353 67.1008C36.7051 65.8368 38.289 64.8638 39.4256 64.7225C40.5121 63.4446 41.6415 62.4626 42.7108 61.928C43.098 60.5305 43.9292 59.1324 44.6735 58.5388C45.0007 57.1324 44.7225 56.2194 44.1278 55.1Z" fill="white" style="fill:white;fill-opacity:1;"/>
<path fill-rule="evenodd" clip-rule="evenodd" d="M45.7395 52.1054C44.0282 52.7614 43.6533 53.6715 43.6989 53.8707C43.7184 53.9541 43.7501 54.0142 43.7801 54.0304C43.8152 54.0465 43.8997 54.0415 44.0388 53.9792C43.9398 54.0576 44.7498 53.4206 44.7498 53.4206L45.3507 52.9472L45.1526 53.9219L45.0057 54.5138C45.0057 54.516 45.0569 54.7976 45.0569 54.7976C45.0591 54.7987 45.1927 55.0657 45.1927 55.0657C45.4502 55.538 45.8864 56.3481 45.8864 57.3561C45.8864 57.4279 45.8697 57.5075 45.8642 57.5798C47.971 56.525 50.0039 56.2852 51.8075 56.3447C53.6106 56.4037 56.197 56.8171 56.197 56.8171C58.364 57.1692 60.4113 57.5019 62.1999 56.9934C62.8953 56.7954 63.3376 56.4794 63.5168 56.051C63.6937 55.6254 63.5785 55.1458 63.4111 54.8398L63.1006 54.2735L63.8661 54.392C64.2278 54.5032 64.4319 54.6713 64.5321 54.8977C64.5671 54.832 64.5933 54.7497 64.5949 54.6062C64.6005 54.2596 64.6267 53.7867 63.5223 52.9177C61.6998 51.4846 57.0499 50.7936 53.501 50.7602C49.8486 50.724 47.6122 51.385 45.7395 52.1054Z" fill="#005394" style="fill:#005394;fill:color(display-p3 0.0000 0.3255 0.5804);fill-opacity:1;"/>
<path fill-rule="evenodd" clip-rule="evenodd" d="M44.3584 61.2011C45.9657 60.8728 48.3512 61.1677 51.9035 61.6706L53.4979 61.8965C59.5498 62.7343 61.1832 61.6673 62.2747 58.3526C60.7687 58.7927 59.2271 58.5501 57.3205 58.1523L53.9469 57.5615C52.0231 57.3334 45.8733 57.0163 44.3584 61.2011Z" fill="#005394" style="fill:#005394;fill:color(display-p3 0.0000 0.3255 0.5804);fill-opacity:1;"/>
<path fill-rule="evenodd" clip-rule="evenodd" d="M41.2207 64.5678C43.0922 64.7965 45.1418 65.4696 46.9821 66.1094L49.1168 66.8193C53.9308 68.2363 57.1681 67.0669 59.0474 63.3444C57.6605 63.5553 55.4924 63.2726 53.1369 62.9299L50.2228 62.5355L49.5624 62.4559C47.0205 62.1411 43.2508 61.7238 41.2207 64.5678Z" fill="#005394" style="fill:#005394;fill:color(display-p3 0.0000 0.3255 0.5804);fill-opacity:1;"/>
<path fill-rule="evenodd" clip-rule="evenodd" d="M37.4502 67.0796C39.0825 67.4707 40.8383 68.2073 42.5579 68.9667L42.9262 69.1286C45.4375 70.2379 48.2893 71.3612 51.802 68.5895C50.2432 68.3987 48.1024 67.6888 46.3015 67.0751L44.6637 66.5294L44.2453 66.3958C41.7707 65.6103 39.4369 64.9605 37.4502 67.0796Z" fill="#005394" style="fill:#005394;fill:color(display-p3 0.0000 0.3255 0.5804);fill-opacity:1;"/>
<path fill-rule="evenodd" clip-rule="evenodd" d="M33.1699 69.4025C33.9009 69.6818 36.3583 70.6215 36.3583 70.6215L38.2404 71.4048C40.1531 72.172 42.483 72.6476 45.2647 71.1183C44.3718 70.7739 41.4744 69.6601 41.4744 69.6601L39.2574 68.7438C37.9199 68.227 35.5255 67.3914 33.1699 69.4025Z" fill="#005394" style="fill:#005394;fill:color(display-p3 0.0000 0.3255 0.5804);fill-opacity:1;"/>
<path fill-rule="evenodd" clip-rule="evenodd" d="M28.918 72.0306C30.2415 72.2414 31.9433 72.7249 33.2368 73.1855C34.2321 73.5399 36.4869 74.2609 38.9988 72.8434C38.2489 72.5502 36.6483 71.9199 36.6483 71.9199L33.9083 70.766C32.8251 70.361 30.8563 69.7423 28.918 72.0306Z" fill="#005394" style="fill:#005394;fill:color(display-p3 0.0000 0.3255 0.5804);fill-opacity:1;"/>
<path fill-rule="evenodd" clip-rule="evenodd" d="M25.5645 74.7869C26.6271 74.8202 27.8927 75.0867 28.7845 75.2876L29.3759 75.4144C30.6989 75.6787 32.5482 75.6147 34.2049 74.418C33.4383 74.2138 31.9017 73.8044 31.9017 73.8044L30.2655 73.3298C28.7033 72.9092 26.725 72.9593 25.5645 74.7869Z" fill="#005394" style="fill:#005394;fill:color(display-p3 0.0000 0.3255 0.5804);fill-opacity:1;"/>
<path fill-rule="evenodd" clip-rule="evenodd" d="M25.2906 75.9931C23.8347 76.3364 22.9362 77.3128 22.6992 78.52C23.3312 78.4243 24.6981 78.2201 24.6981 78.2201L26.1162 78.0516C27.2668 77.8018 28.523 77.1848 29.1956 76.4037C29.1388 76.3892 29.0409 76.3653 29.0409 76.3653C27.7719 76.0471 26.4595 75.7166 25.2906 75.9931Z" fill="#005394" style="fill:#005394;fill:color(display-p3 0.0000 0.3255 0.5804);fill-opacity:1;"/>
<path fill-rule="evenodd" clip-rule="evenodd" d="M24.7296 79.2642L22.7357 79.5886C22.0792 79.8016 21.4678 80.6701 21.4678 81.7794C21.4678 81.8067 21.4722 81.835 21.4733 81.8606C21.8678 81.6926 22.4358 81.4489 22.4358 81.4489L23.5518 81.0239C24.3279 80.6545 24.9566 79.9212 25.262 79.2119C24.9955 79.2381 24.7296 79.2642 24.7296 79.2642Z" fill="#005394" style="fill:#005394;fill:color(display-p3 0.0000 0.3255 0.5804);fill-opacity:1;"/>
<path fill-rule="evenodd" clip-rule="evenodd" d="M23.1279 82.2868L21.7938 82.822C21.5201 82.9633 21.3309 83.2275 21.2314 83.6081C21.1791 83.8056 21.1562 84.0187 21.1562 84.2328C21.1562 84.5989 21.2864 84.8765 21.391 85.1703C21.6731 84.7703 22.0047 84.3002 22.0047 84.3002L22.5326 83.6709C22.9159 83.1569 23.2153 82.6812 23.4172 82.1777C23.2876 82.2267 23.1279 82.2868 23.1279 82.2868Z" fill="#005394" style="fill:#005394;fill:color(display-p3 0.0000 0.3255 0.5804);fill-opacity:1;"/>
<path fill-rule="evenodd" clip-rule="evenodd" d="M21.9688 86.9749C21.9688 87.0433 21.9721 87.114 21.9788 87.1813C22.0561 87.9329 22.5434 88.5927 23.3913 89.0912C24.7059 89.8629 27.0832 89.6943 28.1914 88.7513C28.963 88.0948 29.3169 87.1301 29.0532 86.4074C28.854 85.8622 28.3338 85.5601 27.5883 85.5568C27.0375 85.5546 26.6042 85.845 26.3989 86.3535C26.2086 86.828 26.2409 87.5257 26.7499 88.008L27.1154 88.3557L26.6214 88.4553C25.7585 88.6294 24.9763 88.4826 24.3031 88.0208C23.5226 87.489 22.9652 86.4803 22.6597 85.332C22.2491 85.8261 21.9688 86.4013 21.9688 86.9749Z" fill="#005394" style="fill:#005394;fill:color(display-p3 0.0000 0.3255 0.5804);fill-opacity:1;"/>
<path fill-rule="evenodd" clip-rule="evenodd" d="M64.5262 79.3209C64.1167 80.1621 62.796 80.0303 61.5876 79.8417C60.9445 79.7404 60.4393 79.8339 60.2318 80.0926C60.1261 80.225 60.1066 80.398 60.1784 80.5816C60.3052 80.902 60.7219 81.2853 61.5169 81.4016L63.1765 81.3516C64.021 81.2748 64.9284 81.2553 65.7379 81.4172C65.453 80.8041 64.8032 80.0542 64.5785 79.934L64.2925 79.7816L64.5011 79.5329C64.8305 79.1418 65.7779 78.5398 66.5607 78.1888C66.0767 77.9251 65.5337 77.712 65.2739 77.6436C65.122 77.9835 64.5262 79.3209 64.5262 79.3209Z" fill="#005394" style="fill:#005394;fill:color(display-p3 0.0000 0.3255 0.5804);fill-opacity:1;"/>
<path fill-rule="evenodd" clip-rule="evenodd" d="M12.2881 78.1879C13.0703 78.539 14.0177 79.1409 14.3471 79.532L14.5557 79.7807L14.2687 79.9332C14.0439 80.0533 13.3941 80.8033 13.1098 81.4164C13.9198 81.2545 14.8272 81.2739 15.6734 81.3507L17.3313 81.4008C18.1246 81.2845 18.543 80.9012 18.6693 80.5818C18.7416 80.3977 18.7221 80.2241 18.617 80.0917C18.4095 79.8341 17.9032 79.7396 17.2606 79.8408C16.0539 80.0294 14.7304 80.1624 14.3221 79.3201C14.3221 79.3201 13.7273 77.9849 13.5743 77.6416C13.3156 77.71 12.7727 77.9242 12.2881 78.1879Z" fill="#005394" style="fill:#005394;fill:color(display-p3 0.0000 0.3255 0.5804);fill-opacity:1;"/>
<path fill-rule="evenodd" clip-rule="evenodd" d="M15.1781 77.9787H15.177C15.0747 78.1245 15.0391 78.243 15.0391 78.3465C15.0391 78.4666 15.0891 78.5645 15.1359 78.6558C15.3573 79.0903 16.248 78.9729 17.0346 78.87C17.0346 78.87 17.6778 78.8572 18.0995 78.8494C18.0149 78.4505 17.7017 76.989 17.6249 76.624C16.7064 76.7219 15.6866 77.2532 15.1781 77.9787Z" fill="#005394" style="fill:#005394;fill:color(display-p3 0.0000 0.3255 0.5804);fill-opacity:1;"/>
<path fill-rule="evenodd" clip-rule="evenodd" d="M53.2404 95.4683C52.8248 94.4947 51.8056 94.2305 50.8092 94.1481C49.766 94.0786 48.6717 94.4263 47.9079 95.1902C47.213 95.9546 46.7273 96.9966 46.8653 98.1093C47.0066 99.1513 47.5602 100.054 48.3936 100.68C49.4367 101.374 50.8776 101.584 52.0609 101.166L52.0565 99.4239C52.0292 98.8002 51.8707 98.5699 51.573 98.2673H53.5764V101.861C51.1463 102.557 47.7527 102.625 46.0831 100.402C45.0366 98.9165 44.877 96.9482 46.0831 95.3292C47.6831 93.0355 50.8092 93.2441 53.2404 93.5918V95.4683Z" fill="white" style="fill:white;fill-opacity:1;"/>
<path fill-rule="evenodd" clip-rule="evenodd" d="M31.4517 95.0227C30.8964 94.0503 29.2625 94.4664 28.3595 94.3969V96.8286C29.2625 96.9688 30.3401 97.0372 31.1735 96.6211L31.1624 98.0564C30.3974 97.7794 29.2569 97.7955 28.354 97.8651L28.3595 100.992C29.3676 101.253 31.055 101.151 31.4862 100.859C31.9946 100.515 32.1243 100.243 32.1243 100.243L32.0425 102.154H26.4441C26.4441 102.154 26.8886 101.33 26.8886 100.818C26.8886 100.304 26.8658 94.6383 26.8658 94.6383C26.8307 94.2032 26.6104 93.6069 26.2627 93.4678H31.43L31.4517 95.0227Z" fill="white" style="fill:white;fill-opacity:1;"/>
<path fill-rule="evenodd" clip-rule="evenodd" d="M60.3131 95.0227C59.759 94.0503 58.1256 94.4664 57.2221 94.3969V96.8286C58.1256 96.9688 59.2004 97.0372 60.0361 96.6211L60.0233 98.0564C59.2594 97.7794 58.1189 97.7955 57.2171 97.8651L57.2221 100.992C58.2308 101.253 59.9176 101.151 60.3493 100.859C60.8567 100.515 60.9869 100.243 60.9869 100.243L60.9034 102.154H55.3055C55.3055 102.154 55.75 101.33 55.75 100.818C55.75 100.304 55.7283 94.6383 55.7283 94.6383C55.6933 94.2032 55.4708 93.6069 55.123 93.4678H60.2914L60.3131 95.0227Z" fill="white" style="fill:white;fill-opacity:1;"/>
<path fill-rule="evenodd" clip-rule="evenodd" d="M25.7624 93.468C24.9691 94.0071 21.9726 102.152 21.9726 102.152L20.7465 102.155C20.7465 102.155 18.7904 96.5885 18.0699 95.1971C17.7334 94.5473 17.3072 93.9515 16.7119 93.4658H19.5164C19.0296 93.744 19.2555 94.3971 19.3957 94.8144L21.5493 100.264L21.7573 99.748L23.7045 94.5223C23.8264 94.0689 23.492 93.6767 23.2845 93.468H25.7624Z" fill="white" style="fill:white;fill-opacity:1;"/>
<path fill-rule="evenodd" clip-rule="evenodd" d="M19.0495 105.845C19.0495 105.845 18.6334 106.25 18.6334 107.052V113.028C18.6334 113.584 18.7224 114.253 19.2092 114.531H16.5471C16.5471 114.531 17.0144 114.209 17.0144 112.979V107.052C17.0144 106.323 16.8514 105.99 16.4854 105.845C16.4854 105.845 19.0807 105.861 19.0495 105.845Z" fill="white" style="fill:white;fill-opacity:1;"/>
<path fill-rule="evenodd" clip-rule="evenodd" d="M23.2421 105.845C23.2421 105.845 22.8248 106.25 22.8248 107.052V113.028C22.8248 113.584 23.088 114.253 23.5737 114.531H20.8966C20.8966 114.531 21.3606 114.209 21.3606 112.979C21.3606 111.997 21.3661 107.579 21.3661 107.052C21.3661 106.323 21.2009 105.99 20.8359 105.845C20.8359 105.845 23.2738 105.861 23.2421 105.845Z" fill="white" style="fill:white;fill-opacity:1;"/>
<path fill-rule="evenodd" clip-rule="evenodd" d="M35.1991 94.1254L35.2208 97.3772C35.9301 97.4478 36.7608 97.2642 37.3282 96.7674C37.8234 96.344 37.8367 95.3627 37.4812 94.8675C36.941 94.156 35.8923 94.0914 35.1991 94.1254ZM36.4898 93.4678C37.4017 93.5167 38.1889 93.6936 38.7569 94.3284C39.2426 94.8141 39.4228 95.8801 38.9644 96.482C38.3997 97.2459 37.7922 97.4845 37.089 97.7327C38.2006 99.3316 39.6838 100.792 41.1909 102.059C40.1806 102.044 39.0612 102.245 38.2701 101.277L35.2208 97.7349C35.2208 97.7349 35.2692 100.51 35.2692 101.05C35.2692 101.847 35.9268 102.154 35.9268 102.154H33.2052C33.2052 102.154 33.7699 101.649 33.7699 100.912V94.6383C33.7404 93.9407 33.6809 93.8884 33.1562 93.4678H36.4898Z" fill="white" style="fill:white;fill-opacity:1;"/>
<path fill-rule="evenodd" clip-rule="evenodd" d="M10.1083 106.512L10.1306 109.762C10.8399 109.834 11.6716 109.651 12.2374 109.154C12.7342 108.729 12.7459 107.75 12.3915 107.253C11.8508 106.541 10.8021 106.478 10.1083 106.512ZM11.3996 105.854C12.3125 105.902 13.0981 106.08 13.6661 106.714C14.1529 107.2 14.3331 108.266 13.8747 108.868C13.31 109.632 12.7014 109.871 11.9982 110.119C13.1109 111.717 14.5941 113.178 16.1001 114.444C15.0909 114.43 13.9693 114.633 13.1798 113.662L10.1306 110.121C10.1306 110.121 10.1778 112.897 10.1778 113.437C10.1778 114.233 10.836 114.54 10.836 114.54H8.11439C8.11439 114.54 8.67907 114.037 8.67907 113.298V107.025C8.6507 106.327 8.59117 106.274 8.06543 105.854H11.3996Z" fill="white" style="fill:white;fill-opacity:1;"/>
<path fill-rule="evenodd" clip-rule="evenodd" d="M44.0227 93.375C44.0227 93.375 43.5381 93.7806 43.5381 94.5834V100.559C43.5381 101.114 43.6967 101.782 44.1824 102.061H41.6077C41.6077 102.061 42.0733 101.739 42.0733 100.509C42.0733 99.527 42.0789 95.1102 42.0789 94.5834C42.0789 93.8523 41.9142 93.5185 41.5459 93.375C41.5459 93.375 44.0555 93.3934 44.0227 93.375Z" fill="white" style="fill:white;fill-opacity:1;"/>
<path fill-rule="evenodd" clip-rule="evenodd" d="M59.7257 112.254C59.7257 112.254 59.7652 108.537 59.6968 106.801C59.6673 106.264 59.3574 106.066 59.0097 105.856H61.1655C61.1655 105.856 60.7104 106.164 60.7104 106.742C60.7104 107.322 60.6776 114.531 60.6776 114.531H59.8453L54.2825 107.871V113.097C54.2825 113.951 54.6425 114.322 54.9195 114.531L52.895 114.528C52.895 114.528 53.2405 114.243 53.2405 113.222C53.2405 112.2 53.2449 106.916 53.2449 106.916C53.1743 106.5 52.8249 106.076 52.5479 105.856H52.6163L54.3543 105.845L59.7257 112.254Z" fill="white" style="fill:white;fill-opacity:1;"/>
<path fill-rule="evenodd" clip-rule="evenodd" d="M24.4895 109.682C25.7501 111.411 26.8867 112.598 28.7315 114.445C28.0339 114.601 27.3435 114.653 26.7994 114.445C25.5838 113.662 24.05 111.436 22.9111 109.909C24.139 108.436 25.186 107.19 25.4024 106.821C25.6205 106.452 25.2839 105.861 25.2839 105.861L27.6155 105.845L24.4895 109.682Z" fill="white" style="fill:white;fill-opacity:1;"/>
<path fill-rule="evenodd" clip-rule="evenodd" d="M65.4304 105.845C65.4304 105.845 65.0132 106.25 65.0132 107.052V113.028C65.0132 113.584 65.2763 114.253 65.7631 114.531H63.0871C63.0871 114.531 63.5511 114.209 63.5511 112.979C63.5511 111.997 63.5567 107.579 63.5567 107.052C63.5567 106.323 63.3915 105.99 63.0254 105.845C63.0254 105.845 65.4633 105.861 65.4304 105.845Z" fill="white" style="fill:white;fill-opacity:1;"/>
<path fill-rule="evenodd" clip-rule="evenodd" d="M66.6802 109.682C67.9386 111.411 69.0763 112.598 70.9211 114.445C70.2235 114.601 69.5331 114.653 68.9873 114.445C67.7723 113.662 66.2384 111.436 65.0996 109.909C66.3286 108.436 67.3756 107.19 67.5931 106.821C67.8106 106.452 67.4735 105.861 67.4735 105.861L69.804 105.845L66.6802 109.682Z" fill="white" style="fill:white;fill-opacity:1;"/>
<path fill-rule="evenodd" clip-rule="evenodd" d="M47.1974 107.323L46.0697 110.262H48.4052L47.1974 107.323ZM51.3171 113.538C51.5018 114 52.1844 114.532 52.1844 114.532H49.7527C49.8968 113.696 49.5819 113.243 48.7702 111.2H45.8066C45.5295 112.242 44.359 113.696 45.2652 114.532H42.7617C42.7617 114.532 43.3804 114.037 43.6496 113.392C43.9178 112.748 46.6411 105.851 46.6411 105.851H48.0302C48.0302 105.851 51.1302 113.071 51.3171 113.538Z" fill="white" style="fill:white;fill-opacity:1;"/>
<path fill-rule="evenodd" clip-rule="evenodd" d="M38.0182 110.279L38.0093 113.38C38.7732 113.658 40.0021 113.577 40.4511 113.128C40.9012 112.679 41.028 112 40.7632 111.316C40.3465 110.203 39.0947 110.123 38.0182 110.279ZM38.0093 106.826V109.317C38.0093 109.317 38.6602 109.399 39.3384 109.323C40.1601 109.233 40.3815 108.212 40.1729 107.658C39.8958 106.823 38.7732 106.687 38.0093 106.826ZM38.9862 105.83C40.2469 105.83 41.0608 106.081 41.4258 106.683C41.9148 107.309 41.8592 108.459 41.4258 108.977C40.9924 109.494 40.5206 109.67 40.5206 109.67C41.2867 109.879 42.114 110.373 42.4022 111.408C42.5902 112.186 42.4149 113.098 41.7746 113.771C40.717 114.821 38.7581 114.532 36.1823 114.532C36.1823 114.532 36.6285 114.201 36.6285 113.39C36.6285 112.577 36.5595 107.031 36.5595 107.031C36.4899 106.615 36.2402 106.054 35.8936 105.845C36.9022 105.845 38.9862 105.83 38.9862 105.83Z" fill="white" style="fill:white;fill-opacity:1;"/>
<path fill-rule="evenodd" clip-rule="evenodd" d="M16.2726 95.2254C15.7652 94.3392 14.746 94.1801 14.1107 94.1845C13.4108 94.1901 12.7916 94.6507 12.7254 95.0919C12.5168 96.7236 14.9474 96.9957 16.0879 98.006C17.6429 99.3824 16.3344 101.761 14.3238 102.04C13.3424 102.176 11.9432 102.145 11.0402 101.937C10.9969 101.098 11.0402 100.338 10.9707 99.5053C11.5604 100.54 12.341 101.178 13.4186 101.163C14.326 101.151 15.1822 100.73 15.2962 100.233C15.783 98.1089 12.1691 98.4271 11.3357 96.4121C10.9752 95.5948 11.127 94.8822 11.6127 94.328C12.7254 93.0763 14.7438 93.1414 16.2726 93.5575V95.2254Z" fill="white" style="fill:white;fill-opacity:1;"/>
<path fill-rule="evenodd" clip-rule="evenodd" d="M34.2884 107.713C33.781 106.824 32.7607 106.666 32.1253 106.671C31.4266 106.676 30.8074 107.137 30.7395 107.578C30.532 109.211 32.9615 109.481 34.1014 110.491C35.6586 111.87 34.3501 114.247 32.3378 114.526C31.3581 114.662 29.9573 114.631 29.0549 114.423C29.0109 113.584 29.0549 112.824 28.9854 111.99C29.5762 113.026 30.3562 113.664 31.4338 113.649C32.3401 113.638 33.1974 113.217 33.3114 112.719C33.7971 110.595 30.1843 110.914 29.3503 108.898C28.9892 108.082 29.1417 107.369 29.6285 106.813C30.7395 105.562 32.7595 105.628 34.2884 106.044V107.713Z" fill="white" style="fill:white;fill-opacity:1;"/>
<path fill-rule="evenodd" clip-rule="evenodd" d="M67.2482 95.3454C66.7397 94.4575 65.7194 94.299 65.0835 94.3045C64.3869 94.309 63.7677 94.7696 63.6988 95.2108C63.4912 96.8436 65.9224 97.1151 67.0613 98.1249C68.6173 99.5013 67.3099 101.88 65.2977 102.159C64.3163 102.296 62.9165 102.264 62.0147 102.054C61.9713 101.216 62.0147 100.456 61.9463 99.6231C62.536 100.658 63.3154 101.298 64.3936 101.283C65.2999 101.271 66.1583 100.849 66.2701 100.353C66.7558 98.2289 63.1435 98.546 62.3101 96.531C61.9496 95.7148 62.1015 95.0022 62.5872 94.4469C63.6988 93.1952 65.7194 93.2603 67.2482 93.6775V95.3454Z" fill="white" style="fill:white;fill-opacity:1;"/>
<path fill-rule="evenodd" clip-rule="evenodd" d="M64.597 73.56L64.4123 73.8326C64.2459 73.7286 63.9594 73.3854 63.6818 73.594C63.5405 74.2911 64.6548 74.7801 64.0289 75.5473C63.8181 75.8961 63.1928 75.7559 62.9135 75.5473C62.7744 75.4071 62.5897 75.3398 62.617 75.2168C62.6821 75.1634 62.7583 74.9509 62.835 74.9704C63.1277 75.2068 63.6384 75.6558 63.7497 74.9192C63.6111 74.3617 62.7744 73.8043 63.4025 73.1756C63.7497 72.9681 64.3883 73.1417 64.597 73.56Z" fill="white" style="fill:white;fill-opacity:1;"/>
<path fill-rule="evenodd" clip-rule="evenodd" d="M32.5977 78.4963C32.6673 78.9147 32.388 79.2646 31.9696 79.402C31.8305 79.8215 31.9696 80.3779 32.0391 80.8669C31.9001 81.006 31.4122 80.7973 31.4122 80.4485L31.3415 79.0538C31.6208 79.0538 32.0391 78.9842 32.0391 78.6354C32.1087 78.4268 31.8305 78.0084 31.6208 78.2866L30.5432 80.0263C30.265 79.8872 30.1565 79.7447 30.1465 79.7186L31.4806 77.5205C31.9001 77.728 32.5271 77.9389 32.5977 78.4963Z" fill="white" style="fill:white;fill-opacity:1;"/>
<path fill-rule="evenodd" clip-rule="evenodd" d="M58.0352 71.861V74.547L58.5108 74.5297L58.5453 71.8438L58.0352 71.861Z" fill="white" style="fill:white;fill-opacity:1;"/>
<path fill-rule="evenodd" clip-rule="evenodd" d="M58.9689 71.8076L58.96 72.1954L59.5591 72.2299L59.331 74.4847L59.8579 74.5114L60.1238 72.256L60.8888 72.3105L60.9594 71.9139L58.9689 71.8076Z" fill="white" style="fill:white;fill-opacity:1;"/>
<path fill-rule="evenodd" clip-rule="evenodd" d="M62.0687 72.7939L61.5407 73.4816L61.9819 73.6663L62.0687 72.7939ZM62.6228 72.4952L62.2973 75.155L61.8133 74.908L61.9101 74.1152L61.3026 73.8782L60.6422 74.6354L60.2021 74.503L61.9546 72.1953L62.6228 72.4952Z" fill="white" style="fill:white;fill-opacity:1;"/>
<path fill-rule="evenodd" clip-rule="evenodd" d="M56.0623 72.7147L56.158 73.6583C56.158 73.6583 56.696 73.5704 56.6687 72.9962C56.6437 72.4249 56.0623 72.7147 56.0623 72.7147ZM56.0356 72.204C56.3799 72.0989 57.1733 72.1078 57.2067 72.7236C57.2417 73.3406 56.8017 73.631 56.8017 73.631L57.7708 74.6013L57.2228 74.7153L56.1841 73.7896L56.2742 75.0052L55.8075 75.1726L55.5332 72.441C55.5332 72.441 55.6912 72.3108 56.0356 72.204Z" fill="white" style="fill:white;fill-opacity:1;"/>
<path fill-rule="evenodd" clip-rule="evenodd" d="M54.2832 72.9264L54.7572 72.7334C54.7572 72.7334 55.0765 74.0541 55.0504 74.803C55.022 75.5518 54.5113 76.0091 54.0095 75.9919C53.5077 75.9741 53.2 75.1724 53.1294 74.6083C53.0587 74.0447 53.0498 73.6219 53.0498 73.6219L53.4899 73.3754C53.4899 73.3754 53.5605 74.3802 53.7107 74.8636C53.8598 75.3482 54.1853 75.445 54.2832 75.3671C54.3811 75.2875 54.6181 75.2341 54.5386 74.4847C54.4607 73.737 54.2832 72.9264 54.2832 72.9264Z" fill="white" style="fill:white;fill-opacity:1;"/>
<path fill-rule="evenodd" clip-rule="evenodd" d="M53.0768 76.0898L53.3572 76.4408C53.3572 76.4408 52.758 77.0928 52.3018 77.0494C51.8423 77.0044 51.3238 76.5738 51.2965 75.5523C51.2693 74.5298 52.1494 73.9918 52.5833 74.0808L52.5917 74.5298C52.5917 74.5298 51.7366 74.6177 51.8529 75.6141C51.9647 76.6094 52.5127 76.6005 52.6785 76.4408C52.847 76.2822 53.0768 76.0898 53.0768 76.0898Z" fill="white" style="fill:white;fill-opacity:1;"/>
<path fill-rule="evenodd" clip-rule="evenodd" d="M49.5166 75.9573L50.3889 78.3445L51.6223 77.4894L51.4477 77.1022L50.6627 77.6302L50.4423 76.9787L50.9703 76.5821L50.8017 76.2038L50.2576 76.5376L50.0813 76.0096L50.7773 75.5434L50.5837 75.1729L49.5166 75.9573Z" fill="white" style="fill:white;fill-opacity:1;"/>
<path fill-rule="evenodd" clip-rule="evenodd" d="M49.006 76.9335C49.006 76.9335 48.4519 77.0849 48.477 77.4109C48.5042 77.7358 48.9081 77.6651 49.0333 77.6562C49.1557 77.6479 49.835 77.6301 49.8967 78.2921C49.959 78.9514 49.3866 79.4176 48.6366 79.4632L48.5498 79.0137C48.5498 79.0137 49.3504 78.9964 49.3677 78.4401C49.3866 77.8854 48.9003 78.1508 48.5821 78.1408C48.2672 78.1324 47.9323 77.8854 47.9596 77.3664C47.9846 76.8467 48.5137 76.5474 48.8647 76.5029L49.006 76.9335Z" fill="white" style="fill:white;fill-opacity:1;"/>
<path fill-rule="evenodd" clip-rule="evenodd" d="M43.7109 79.5591C43.7109 79.5591 44.5043 79.208 45.1379 78.8464C45.7733 78.4859 46.6189 77.9824 46.6189 77.9824L46.7786 78.3257L46.2061 78.7324L46.7947 80.7758L46.3636 81.0573L45.7388 78.9705C45.7388 78.9705 45.1302 79.3571 44.3368 79.7449L44.4965 80.3346L45.1919 80.052L45.2976 80.4142L44.6456 80.7313L44.8748 81.4095L45.7026 80.9866L45.8189 81.3744L44.5404 82.0787L43.7109 79.5591Z" fill="white" style="fill:white;fill-opacity:1;"/>
<path fill-rule="evenodd" clip-rule="evenodd" d="M40.5156 80.3246L40.6308 83.118L41.1588 83.0462L41.0709 80.6863C41.0709 80.6863 41.6261 80.6067 41.6522 81.0384C41.6784 81.4707 41.1938 81.6281 41.1938 81.6281C41.1938 81.6281 42.5502 82.7475 42.5591 82.7475C42.568 82.7475 43.1504 82.5366 43.1504 82.5366L41.9076 81.5764C41.9076 81.5764 42.2853 81.2253 42.2236 80.792C42.1624 80.3614 41.5988 80.0887 41.097 80.1855C40.5952 80.2812 40.5156 80.3246 40.5156 80.3246Z" fill="white" style="fill:white;fill-opacity:1;"/>
<path fill-rule="evenodd" clip-rule="evenodd" d="M39.8547 80.3878C39.8547 80.3878 39.8186 81.8059 39.7674 82.3339C39.7134 82.8619 39.4047 83.303 38.5407 83.2407C37.6783 83.1801 37.6867 82.4746 37.7229 82.0079C37.7573 81.5417 38.0227 80.291 38.0227 80.291L38.4973 80.3433C38.4973 80.3433 38.2781 81.4093 38.2603 81.8321C38.2419 82.2555 38.2603 82.6694 38.6569 82.7128C39.0536 82.7573 39.2567 82.5019 39.2906 81.9472C39.3257 81.392 39.3524 80.4051 39.3524 80.4051L39.8547 80.3878Z" fill="white" style="fill:white;fill-opacity:1;"/>
<path fill-rule="evenodd" clip-rule="evenodd" d="M36.2608 80.3248L35.547 82.0706C35.547 82.0706 35.8029 82.4038 36.2073 82.2814C36.6124 82.1573 36.7197 81.7429 36.1289 81.2255C36.1289 81.2255 36.5206 81.1515 36.6391 80.8622C36.8427 80.3704 36.2608 80.3248 36.2608 80.3248ZM36.3136 79.8497C36.6124 79.9114 37.2032 80.1223 37.2466 80.643C37.29 81.1626 36.7793 81.3212 36.7793 81.3212C36.7793 81.3212 37.2566 81.7612 37.0619 82.2553C36.8677 82.7476 36.3398 82.9234 35.7673 82.7298C35.1948 82.5368 34.9395 82.2553 34.9395 82.2553L35.9175 79.8063C35.9175 79.8063 36.0137 79.7879 36.3136 79.8497Z" fill="white" style="fill:white;fill-opacity:1;"/>
<path fill-rule="evenodd" clip-rule="evenodd" d="M33.9933 79.4022C33.5043 79.4022 33.2261 79.9607 33.1566 80.3085C33.0859 80.6584 33.1566 81.2158 33.6434 81.2158C33.9933 81.2158 34.2715 80.7975 34.4117 80.4487C34.6192 80.0998 34.4812 79.4717 33.9933 79.4022ZM34.9692 79.6826C35.1077 80.378 34.8991 81.0061 34.341 81.4256C33.9933 81.7744 33.3641 81.7744 32.9458 81.4951C32.459 81.0768 32.459 80.4487 32.6676 79.9608C32.8067 79.4717 33.3641 78.9844 33.8531 78.9148C34.341 78.8453 34.8295 79.2648 34.9692 79.6826Z" fill="white" style="fill:white;fill-opacity:1;"/>
<path fill-rule="evenodd" clip-rule="evenodd" d="M13.9775 73.9621L14.3197 73.5966L14.7325 74.5964L15.7233 73.8781L15.5052 72.8461L15.9481 72.6191L16.5489 75.3469L16.1578 75.6078L15.8101 74.3249L14.8649 74.9886L15.2237 76.0968L14.841 76.4228L13.9775 73.9621Z" fill="white" style="fill:white;fill-opacity:1;"/>
<path fill-rule="evenodd" clip-rule="evenodd" d="M17.0469 72.3597L17.3262 75.0096L17.7518 74.9194L17.5337 72.2891L17.0469 72.3597Z" fill="white" style="fill:white;fill-opacity:1;"/>
<path fill-rule="evenodd" clip-rule="evenodd" d="M18.5186 74.8366V72.2273L19.0615 72.2051L20.2037 73.9993L20.4863 72.3236L20.9514 72.3597L20.5514 75.0869L20.1386 75.0213L18.9531 72.9228V74.826L18.5186 74.8366Z" fill="white" style="fill:white;fill-opacity:1;"/>
<path fill-rule="evenodd" clip-rule="evenodd" d="M23.182 73.7534L23.4535 73.4992C23.4535 73.4992 23.0819 72.8077 22.4182 72.8516C21.7544 72.895 21.1286 73.6806 21.1614 74.4733C21.1937 75.2678 21.8674 75.8252 22.4866 75.7763L22.6145 75.3752C22.6145 75.3752 21.2949 75.2611 21.7478 74.0094C22.1717 72.8349 23.0852 73.5415 23.182 73.7534Z" fill="white" style="fill:white;fill-opacity:1;"/>
<path fill-rule="evenodd" clip-rule="evenodd" d="M39.4331 42.844C35.8469 42.844 34.6308 43.0543 32.2969 43.9912C32.1384 41.7063 30.456 37.1999 27.9697 35.453C30.2602 34.524 33.1331 35.0369 34.0655 36.3354C34.8338 37.4058 34.5712 38.425 34.1896 38.9669C34.095 39.1015 34.1156 39.215 34.1996 39.304C34.8043 39.9427 36.5129 39.679 36.7849 38.8562C36.8227 38.7432 36.796 38.6826 36.7109 38.6175C36.287 38.2926 35.3729 37.8353 35.334 37.3168C35.2155 35.7218 37.8575 33.4908 39.4331 32.7275C41.0086 33.4908 43.6507 35.7218 43.5322 37.3168C43.4932 37.8353 42.5792 38.2926 42.1541 38.6175C42.0696 38.6826 42.0423 38.7432 42.0807 38.8562C42.3533 39.679 44.0612 39.9427 44.6665 39.304C44.75 39.215 44.7711 39.1015 44.6766 38.9669C44.2949 38.425 44.0318 37.4058 44.8001 36.3354C45.7325 35.0369 48.6049 34.524 50.8953 35.453C48.4096 37.1999 46.7278 41.7063 46.5692 43.9912C44.2354 43.0543 43.0192 42.844 39.4331 42.844Z" fill="white" style="fill:white;fill-opacity:1;"/>
<path fill-rule="evenodd" clip-rule="evenodd" d="M36.3451 37.1337V37.1359C36.3451 37.3562 36.8875 37.7078 37.2124 37.9186L37.5073 38.1156C37.7827 38.3114 37.8455 38.5284 37.8455 38.6858C37.8455 38.6975 37.8455 38.7092 37.845 38.7203C37.8005 39.4764 37.0945 40.1479 36.0458 40.4322C35.1462 40.6764 33.8638 40.613 33.2107 39.6333C33.0622 39.4096 33.0616 39.1187 33.2096 38.8917C33.722 38.1045 33.9083 37.4675 33.2552 36.7264C32.6338 36.0215 31.1194 35.602 29.8398 36.0343C31.5717 38.0427 32.3495 40.2853 33.0672 42.4695C34.9387 41.9543 36.3496 41.8086 39.4333 41.8086C42.5171 41.8086 43.928 41.9543 45.799 42.4695C46.5172 40.2848 47.2961 38.0421 49.0257 36.0343C47.7467 35.6026 46.2329 36.0221 45.6109 36.7264C44.9583 37.4675 45.1441 38.1045 45.6565 38.8922C45.8051 39.1187 45.8045 39.4102 45.6549 39.6333C45.0028 40.613 43.7199 40.6764 42.8198 40.4322C41.7716 40.1484 41.0651 39.4764 41.0206 38.7203C41.02 38.7098 41.0195 38.6986 41.0195 38.6875C41.0195 38.5301 41.0834 38.3125 41.3594 38.1156L41.6537 37.9192C41.9791 37.7084 42.5221 37.3562 42.5221 37.1359V37.1337C42.5015 36.0577 40.9471 34.7208 39.4333 34.0254C37.9195 34.7208 36.3651 36.0571 36.3451 37.1337Z" fill="#005394" style="fill:#005394;fill:color(display-p3 0.0000 0.3255 0.5804);fill-opacity:1;"/>
<path fill-rule="evenodd" clip-rule="evenodd" d="M25.7417 31.8122C22.155 31.8122 20.9394 32.023 18.6055 32.9599C18.447 30.675 16.764 26.1687 14.2783 24.4218C16.5688 23.4927 19.4411 24.0056 20.3741 25.3041C21.1424 26.3745 20.8793 27.3937 20.4982 27.9356C20.4036 28.0703 20.4242 28.1832 20.5076 28.2728C21.1129 28.9114 22.8209 28.6472 23.0935 27.8249C23.1313 27.712 23.1041 27.6508 23.0195 27.5862C22.595 27.2613 21.6815 26.804 21.642 26.2855C21.5235 24.6905 24.1656 22.459 25.7417 21.6963C27.3172 22.459 29.9593 24.6905 29.8408 26.2855C29.8013 26.804 28.8878 27.2613 28.4627 27.5862C28.3782 27.6508 28.3509 27.712 28.3887 27.8249C28.6619 28.6472 30.3698 28.9114 30.9751 28.2728C31.0586 28.1832 31.0792 28.0703 30.9846 27.9356C30.6035 27.3937 30.3404 26.3745 31.1087 25.3041C32.0411 24.0056 34.9135 23.4927 37.2039 24.4218C34.7176 26.1687 33.0364 30.675 32.8778 32.9599C30.5434 32.023 29.3278 31.8122 25.7417 31.8122Z" fill="white" style="fill:white;fill-opacity:1;"/>
<path fill-rule="evenodd" clip-rule="evenodd" d="M22.6537 26.1024V26.1046C22.6537 26.3249 23.1956 26.6765 23.5205 26.8868L23.8159 27.0838C24.0913 27.2802 24.1541 27.4971 24.1541 27.6546C24.1541 27.6663 24.1541 27.678 24.1536 27.6891C24.1091 28.4451 23.4025 29.1166 22.3544 29.4009C21.4542 29.6446 20.1724 29.5817 19.5193 28.6015C19.3702 28.3784 19.3696 28.0874 19.5182 27.8604C20.0306 27.0727 20.2169 26.4356 19.5638 25.6952C18.9424 24.9903 17.428 24.5708 16.1484 25.0031C17.8798 27.0115 18.6581 29.2541 19.3758 31.4382C21.2467 30.9231 22.6581 30.7773 25.7419 30.7773C28.8252 30.7773 30.2366 30.9231 32.1075 31.4382C32.8258 29.2535 33.6041 27.0109 35.3343 25.0031C34.0553 24.5714 32.5409 24.9908 31.9195 25.6952C31.2664 26.4362 31.4522 27.0732 31.9651 27.8604C32.1137 28.0874 32.1131 28.3789 31.9635 28.602C31.3109 29.5817 30.0285 29.6446 29.1278 29.4009C28.0802 29.1172 27.3737 28.4451 27.3292 27.6891C27.3286 27.6785 27.328 27.6674 27.328 27.6563C27.328 27.4988 27.3915 27.2813 27.6674 27.0838L27.9623 26.8874C28.2877 26.6771 28.8302 26.3249 28.8302 26.1046V26.1024C28.8096 25.0264 27.2552 23.6896 25.7419 22.9941C24.2281 23.6896 22.6737 25.0259 22.6537 26.1024Z" fill="#005394" style="fill:#005394;fill:color(display-p3 0.0000 0.3255 0.5804);fill-opacity:1;"/>
<path fill-rule="evenodd" clip-rule="evenodd" d="M53.0893 31.8122C49.5026 31.8122 48.287 32.023 45.9537 32.9599C45.7946 30.675 44.1117 26.1687 41.626 24.4218C43.9159 23.4927 46.7893 24.0056 47.7218 25.3041C48.4901 26.3745 48.2269 27.3937 47.8458 27.9356C47.7513 28.0703 47.7718 28.1832 47.8559 28.2728C48.4606 28.9114 50.1691 28.6472 50.4412 27.8249C50.479 27.712 50.4523 27.6508 50.3672 27.5862C49.9427 27.2613 49.0292 26.804 48.9902 26.2855C48.8717 24.6905 51.5138 22.459 53.0893 21.6963C54.6649 22.459 57.3069 24.6905 57.1884 26.2855C57.1495 26.804 56.2354 27.2613 55.8104 27.5862C55.7258 27.6508 55.6985 27.712 55.7369 27.8249C56.0095 28.6472 57.7175 28.9114 58.3228 28.2728C58.4062 28.1832 58.4268 28.0703 58.3328 27.9356C57.9512 27.3937 57.688 26.3745 58.4563 25.3041C59.3887 24.0056 62.2611 23.4927 64.5516 24.4218C62.0658 26.1687 60.384 30.675 60.2255 32.9599C57.8916 32.023 56.6755 31.8122 53.0893 31.8122Z" fill="white" style="fill:white;fill-opacity:1;"/>
<path fill-rule="evenodd" clip-rule="evenodd" d="M50.0014 26.1024V26.1046C50.0014 26.3249 50.5438 26.6765 50.8687 26.8868L51.1635 27.0838C51.4389 27.2802 51.5018 27.4971 51.5018 27.6546C51.5018 27.6663 51.5018 27.678 51.5012 27.6891C51.4567 28.4451 50.7507 29.1166 49.702 29.4009C48.8024 29.6446 47.5201 29.5817 46.8669 28.6015C46.7184 28.3784 46.7178 28.0874 46.8658 27.8604C47.3782 27.0727 47.5646 26.4356 46.9114 25.6952C46.29 24.9903 44.7757 24.5708 43.4961 25.0031C45.228 27.0115 46.0057 29.2541 46.7234 31.4382C48.5949 30.9231 50.0058 30.7773 53.0896 30.7773C56.1734 30.7773 57.5842 30.9231 59.4552 31.4382C60.1734 29.2535 60.9523 27.0109 62.682 25.0031C61.4029 24.5714 59.8886 24.9908 59.2672 25.6952C58.614 26.4362 58.7998 27.0732 59.3128 27.8604C59.4613 28.0874 59.4608 28.3789 59.3111 28.602C58.6591 29.5817 57.3762 29.6446 56.476 29.4009C55.4279 29.1172 54.7213 28.4451 54.6768 27.6891C54.6763 27.6785 54.6757 27.6674 54.6757 27.6563C54.6757 27.4988 54.7397 27.2813 55.0156 27.0838L55.3099 26.8874C55.6354 26.6771 56.1784 26.3249 56.1784 26.1046V26.1024C56.1572 25.0264 54.6034 23.6896 53.0896 22.9941C51.5758 23.6896 50.0214 25.0259 50.0014 26.1024Z" fill="#005394" style="fill:#005394;fill:color(display-p3 0.0000 0.3255 0.5804);fill-opacity:1;"/>
</g>
<defs>
<clipPath id="clip0_5235_618">
<rect width="79" height="127" fill="white" style="fill:white;fill-opacity:1;"/>
</clipPath>
</defs>
</svg>
